<svg width="549" height="54" viewBox="0 0 549 54" fill="none" xmlns="http://www.w3.org/2000/svg" id="line">
  <style>
    #line {
      stroke-dasharray: 560;
      stroke-dashoffset: 560;
      animation: sign .5s ease forwards;
    }
    @keyframes sign {
      to {
        stroke-dashoffset: 0;
      }
    }
  </style>
  <linearGradient id="gradient">
    <stop id="stop1" offset="0%" stop-color="#ff8a00" />
    <stop id="stop2" offset="100%" stop-color="#e52e71" />
  </linearGradient>
  <path d="M6.51477 24.737C6.51477 19.3298 50.4375 13.0763 54.271 12.5638C80.2811 9.08655 103.141 12.688 128.246 18.4498C135.697 20.1596 143.395 19.8952 150.987 19.9212C168.243 19.9803 185.501 19.9629 202.757 19.9212C224.535 19.8686 247.78 15.8667 269.375 19.5199C283.322 21.8795 296.909 26.0011 309.907 31.5593C321.063 36.3299 332.369 44.2091 344.286 46.943C353.4 49.0337 363.809 39.9448 370.773 35.5724C380.155 29.6824 388.964 23.233 397.795 16.577C414.834 3.73415 434.749 5.98857 455.049 8.81825C484.404 12.9102 512.701 21.6852 542.267 23.5331" stroke="url(#gradient)" stroke-width="10" stroke-linecap="round" />
</svg>